<svg width="64" height="64" viewBox="0 0 64 64" xmlns="http://www.w3.org/2000/svg">
  <defs>
    <linearGradient id="blobGrad" x1="8%" y1="0%" x2="92%" y2="100%">
      <stop offset="0%" stop-color="#8B7CFF"/>
      <stop offset="55%" stop-color="#45E6D6"/>
      <stop offset="100%" stop-color="#5FD9C9"/>
    </linearGradient>
    <linearGradient id="sheen" x1="10%" y1="0%" x2="70%" y2="80%">
      <stop offset="0%" stop-color="#FFFFFF" stop-opacity="0.38"/>
      <stop offset="45%" stop-color="#FFFFFF" stop-opacity="0"/>
    </linearGradient>
  </defs>

  <!-- liquid blob shell -->
  <path d="M32,5 C45,3 59,13 59,28 C61,43 49,59 33,59 C17,61 5,48 5,32 C3,17 18,7 32,5 Z"
        fill="url(#blobGrad)" stroke="rgba(255,255,255,0.35)" stroke-width="1"/>

  <!-- glass sheen -->
  <path d="M32,5 C45,3 59,13 59,28 C61,43 49,59 33,59 C17,61 5,48 5,32 C3,17 18,7 32,5 Z"
        fill="url(#sheen)"/>

  <!-- sync mark -->
  <g transform="translate(12.8,12.8) scale(1.6)" fill="none" stroke="#FFFFFF"
     stroke-width="2.2" stroke-linecap="round" stroke-linejoin="round">
    <polyline points="23 4 23 10 17 10"/>
    <polyline points="1 20 1 14 7 14"/>
    <path d="M3.51 9a9 9 0 0 1 14.85-3.36L23 10"/>
    <path d="M20.49 15a9 9 0 0 1-14.85 3.36L1 14"/>
  </g>
</svg>